{"title":"Life As We Know It 2010 720p BRRip.x264.Feel-Free","uid":6117105,"size":2317877445,"categoryP":"video","categoryS":"hd___movies","magnet":"?xt=urn:btih:237c74da98e5203a9fcb80e7e7482656cb9768ad&amp;dn=Life+As+We+Know+It+2010+720p+BRRip.x264.Feel-Free&amp;tr=udp%3A%2F%2Ftracker.openbittorrent.com%3A80&amp;tr=udp%3A%2F%2Fopen.demonii.com%3A1337&amp;tr=udp%3A%2F%2Ftracker.coppersurfer.tk%3A6969&amp;tr=udp%3A%2F%2Fexodus.desync.com%3A6969","seeders":0,"leechers":1,"uploader":"neon","files":-1,"time":1295599593,"description":"Genre:Comedy | Drama\nLanguage:English\n &lt;a href=&quot; http://www.imdb.com/title/tt1055292/&quot; rel=&quot;nofollow&quot; target=&quot;_NEW&quot;&gt; http://www.imdb.com/title/tt1055292/&lt;/a&gt;\nSource:1080p.BluRay.x264-SECTOR7\nSubtitles:Romana\n\n\nFormat : Matroska\nFile size : 2.15 GiB\nDuration : 1h 54mn\nOverall bit rate : 2 688 Kbps\n\n\nVideo\nFormat settings, CABAC : Yes\nFormat settings, ReFrames : 4 frames\nFormat settings, GOP : M=1, N=32\nCodec ID : V_MPEG4/ISO/AVC\nDuration : 1h 54mn\nBit rate : 2 300 Kbps\nWidth : 1 280 pixels\nHeight : 544 pixels\nDisplay aspect ratio : 2.35:1\nFrame rate mode : Variable\nFrame rate : 23.976 fps\nColor space : YUV\nChroma subsampling : 4:2:0\nBit depth : 8 bits\nScan type : Progressive\nBits/(Pixel*Frame) : 0.138\nStream size : 1.80 GiB (84%)\nWriting library : x264\n\nAudio\nID : 2\nFormat : AC-3\nFormat/Info : Audio Coding 3\nMode extension : CM (complete main)\nCodec ID : A_AC3\nDuration : 1h 54mn\nBit rate mode : Constant\nBit rate : 384 Kbps\nChannel(s) : 6 channels\nChannel positions : Front: L C R, Side: L R, LFE\nSampling rate : 48.0 KHz\nBit depth : 16 bits\nVideo delay : -1mn 5s\nStream size : 315 MiB (14%)\nLanguage : English\n\n\nPlot:\nTwo single adults become caregivers to an orphaned girl when their mutual best friends die in an accident.\n &lt;a href=&quot;\nhttp://shareimage.org/images/k57gi1b7b6ez0r070rj.png&quot; rel=&quot;nofollow&quot; target=&quot;_NEW&quot;&gt;\nhttp://shareimage.org/images/k57gi1b7b6ez0r070rj.png&lt;/a&gt; &lt;a href=&quot;\nhttp://shareimage.org/images/nr4t3riwpwghkolmcdo2.png&quot; rel=&quot;nofollow&quot; target=&quot;_NEW&quot;&gt;\nhttp://shareimage.org/images/nr4t3riwpwghkolmcdo2.png&lt;/a&gt; &lt;a href=&quot;\nhttp://shareimage.org/images/6bapjvo32maqlazryvch.png&quot; rel=&quot;nofollow&quot; target=&quot;_NEW&quot;&gt;\nhttp://shareimage.org/images/6bapjvo32maqlazryvch.png&lt;/a&gt; &lt;a href=&quot;\nhttp://shareimage.org/images/k5tnptfh2cb04c95ccw.png&quot; rel=&quot;nofollow&quot; target=&quot;_NEW&quot;&gt;\nhttp://shareimage.org/images/k5tnptfh2cb04c95ccw.png&lt;/a&gt; &lt;a href=&quot;\nhttp://shareimage.org/images/mkkzmzqmt1a55f6fit0k.png&quot; rel=&quot;nofollow&quot; target=&quot;_NEW&quot;&gt;\nhttp://shareimage.org/images/mkkzmzqmt1a55f6fit0k.png&lt;/a&gt;","torrent":{"xt":"urn:btih:237c74da98e5203a9fcb80e7e7482656cb9768ad","amp;dn":"Life+As+We+Know+It+2010+720p+BRRip.x264.Feel-Free","amp;tr":["udp%3A%2F%2Ftracker.openbittorrent.com%3A80","udp%3A%2F%2Fopen.demonii.com%3A1337","udp%3A%2F%2Ftracker.coppersurfer.tk%3A6969","udp%3A%2F%2Fexodus.desync.com%3A6969"],"infoHash":"237c74da98e5203a9fcb80e7e7482656cb9768ad","infoHashBuffer":{"type":"Buffer","data":[35,124,116,218,152,229,32,58,159,203,128,231,231,72,38,86,203,151,104,173]},"announce":[],"urlList":[]}}